<svg width="116" height="76" viewBox="0 0 116 76" fill="none" xmlns="http://www.w3.org/2000/svg">
<g filter="url(#filter0_d_6_5)">
<path d="M107.175 37.4307L106.235 36.2905C105.975 35.9661 105.768 35.581 105.627 35.1572C105.487 34.7333 105.414 34.279 105.414 33.8202C105.414 33.3614 105.487 32.9071 105.627 32.4833C105.768 32.0594 105.975 31.6743 106.235 31.3499L107.175 30.1774C107.435 29.8522 107.641 29.4662 107.781 29.0417C107.922 28.6171 107.993 28.1622 107.992 27.7031V18.5011C107.994 17.7487 108.189 17.0168 108.55 16.4138C108.911 15.8108 109.418 15.3689 109.996 15.1534C110.575 14.9391 111.083 14.4974 111.444 13.8942C111.805 13.291 112 12.5585 112 11.8057V4.04306C112 2.97078 111.658 1.94241 111.05 1.18419C110.442 0.425964 109.617 0 108.758 0H7.24896C6.38901 0 5.56428 0.425964 4.9562 1.18419C4.34812 1.94241 4.0065 2.97078 4.0065 4.04306V11.8057C4.00521 12.5578 4.19902 13.2901 4.55901 13.8935C4.91899 14.4968 5.42585 14.9388 6.00387 15.1534C6.58201 15.3689 7.08911 15.8108 7.45003 16.4138C7.81096 17.0168 8.00648 17.7487 8.00769 18.5011V27.6707C8.00678 28.1299 8.07849 28.5847 8.21869 29.0093C8.3589 29.4339 8.56486 29.8198 8.8248 30.1451L9.75863 31.3176C10.0227 31.6425 10.2324 32.0297 10.3756 32.4565C10.5187 32.8833 10.5924 33.3414 10.5924 33.804C10.5924 34.2667 10.5187 34.7247 10.3756 35.1516C10.2324 35.5784 10.0227 35.9656 9.75863 36.2905L8.8183 37.463C8.30162 38.107 8.00822 38.978 8.0012 39.8889V49.0989C7.99999 49.8513 7.80447 50.5833 7.44354 51.1862C7.08262 51.7892 6.57552 52.2311 5.99738 52.4466C5.41936 52.6612 4.9125 53.1032 4.55252 53.7065C4.19253 54.3099 3.99871 55.0423 4.00001 55.7943V63.5569C4.00001 64.6292 4.34163 65.6576 4.94971 66.4158C5.55779 67.174 6.38252 67.6 7.24247 67.6H108.758C109.617 67.6 110.442 67.174 111.05 66.4158C111.658 65.6576 112 64.6292 112 63.5569V55.7943C112 55.0415 111.805 54.309 111.444 53.7058C111.083 53.1026 110.575 52.6609 109.996 52.4466C109.418 52.2311 108.911 51.7892 108.55 51.1862C108.189 50.5833 107.994 49.8513 107.992 49.0989V39.8969C107.993 39.439 107.921 38.9854 107.781 38.5622C107.641 38.1389 107.435 37.7544 107.175 37.4307Z" fill="#FDB936"/>
<path d="M7.24895 65.9909C6.73297 65.9909 6.23812 65.7353 5.87327 65.2803C5.50842 64.8254 5.30347 64.2084 5.30347 63.565V55.8023C5.30465 55.3998 5.4092 55.0084 5.60175 54.6854C5.7943 54.3623 6.06476 54.1247 6.3735 54.0072C7.21714 53.6866 7.95653 53.0383 8.48383 52.1568C9.01113 51.2753 9.29873 50.2067 9.30466 49.107V39.8969C9.30403 39.6505 9.34271 39.4063 9.41841 39.1787C9.49411 38.951 9.60532 38.7444 9.74563 38.5708L10.6859 37.3983C11.4534 36.4388 11.8844 35.139 11.8844 33.7838C11.8844 32.4287 11.4534 31.1288 10.6859 30.1693L9.75861 29.013C9.61831 28.8394 9.50706 28.6328 9.43135 28.4051C9.35565 28.1775 9.31701 27.9333 9.31764 27.6869V18.501C9.31339 17.4018 9.02632 16.3332 8.49867 15.4526C7.97102 14.572 7.23064 13.9257 6.38644 13.6089C6.07718 13.4899 5.80656 13.2508 5.61406 12.9264C5.42155 12.602 5.31727 12.2093 5.31645 11.8057V4.04306C5.31645 3.39968 5.52141 2.78266 5.88626 2.32773C6.2511 1.8728 6.74595 1.61722 7.26193 1.61722H108.758C109.273 1.61722 109.768 1.8728 110.133 2.32773C110.498 2.78266 110.703 3.39968 110.703 4.04306V11.8057C110.695 12.2034 110.587 12.5877 110.393 12.9041C110.2 13.2206 109.932 13.4531 109.627 13.5685C108.777 13.8873 108.033 14.5396 107.505 15.4284C106.976 16.3172 106.693 17.3949 106.695 18.501V27.6707C106.696 28.1668 106.54 28.6434 106.261 28.9968L105.321 30.1693C104.94 30.6439 104.638 31.2074 104.432 31.8276C104.225 32.4478 104.119 33.1125 104.119 33.7838C104.119 34.4551 104.225 35.1199 104.432 35.7401C104.638 36.3603 104.94 36.9237 105.321 37.3983L106.261 38.5708C106.54 38.9243 106.696 39.4008 106.695 39.8969V49.107C106.701 50.2067 106.989 51.2753 107.516 52.1568C108.043 53.0383 108.783 53.6866 109.627 54.0072C109.936 54.1232 110.208 54.3603 110.402 54.6835C110.596 55.0066 110.701 55.3988 110.703 55.8023V63.565C110.703 64.2084 110.498 64.8254 110.133 65.2803C109.768 65.7353 109.273 65.9909 108.758 65.9909H7.24895Z" fill="url(#paint0_linear_6_5)"/>
<path d="M12.4584 50C12.1291 51.1586 11.4732 52.221 10.5542 53.0847C9.63518 53.9483 8.48416 54.5839 7.21241 54.9299C7.15215 54.9484 7.09955 54.983 7.06161 55.029C7.02368 55.075 7.00221 55.1304 7 55.1876V63.1686C7 63.3891 7.09726 63.6006 7.27047 63.7565C7.44368 63.9124 7.67864 64 7.9236 64H18C16.7087 59.5732 15.6912 55.0853 14.9521 50.557L12.4584 50Z" fill="#120D09"/>
<path d="M14.1801 46.3158L11 46V48.6132L15 49C14.66 48.1 14.4001 47.2 14.1801 46.3158Z" fill="#120D09"/>
<path d="M13.2155 39L11.2078 39.6359C11.0725 39.6818 10.998 39.7428 11 39.8059V42.7634L14 43C13.6769 41.7209 13.4001 40.3752 13.2155 39Z" fill="#120D09"/>
<path d="M11 22.7057L14.2542 23C14.4802 22.109 14.7288 21.2262 15 20.3597L11 20V22.7057Z" fill="#403A3F"/>
<path d="M11.0002 28.0158C10.9977 28.0541 11.0165 28.0921 11.0555 28.1278C11.0944 28.1634 11.1528 28.196 11.2272 28.2235L13.4203 29C13.5715 27.7449 13.7731 26.5169 14 25.307L11.0002 25V28.0158Z" fill="#605553"/>
<path d="M103.519 50C103.852 51.1585 104.512 52.2204 105.434 53.0838C106.357 53.9472 107.512 54.5829 108.787 54.9299C108.847 54.9484 108.9 54.983 108.938 55.029C108.976 55.075 108.998 55.1304 109 55.1876V63.1686C109 63.3891 108.902 63.6006 108.729 63.7565C108.555 63.9124 108.32 64 108.074 64H98C99.299 59.5741 100.319 55.086 101.056 50.557L103.519 50Z" fill="#120D09"/>
<path d="M101.82 46.3158L105 46V48.6132L101 49C101.3 48.1 101.56 47.2 101.82 46.3158Z" fill="#120D09"/>
<path d="M102.779 39L104.771 39.6359C104.912 39.6811 104.994 39.7419 105 39.8059V42.7634L102 43C102.344 41.7209 102.595 40.3752 102.779 39Z" fill="#120D09"/>
<path d="M105 22.7057L101.746 23C101.52 22.109 101.271 21.2262 101 20.3597L105 20V22.7057Z" fill="#403A3F"/>
<path d="M105 28.0068C104.996 28.086 104.906 28.1613 104.75 28.2164L102.6 29C102.45 27.7335 102.25 26.4943 102 25.2733L105 25V28.0068Z" fill="#605553"/>
<path d="M8.90478 3H8.03519C7.76064 3 7.49735 3.08755 7.30322 3.2434C7.10908 3.39925 7 3.61062 7 3.83102V11.8089C7.00168 11.8651 7.02431 11.9197 7.06489 11.9656C7.10547 12.0115 7.16217 12.0466 7.22778 12.0665C8.76475 12.4415 10.1423 13.1509 11.2076 14.1161C12.2729 15.0814 12.9843 16.2646 13.263 17.5346L15.5922 18C15.9959 15.5817 16.4824 13.2881 17 11.1191C14.7014 10.7069 12.6466 9.67784 11.1748 8.20173C9.70306 6.72561 8.90231 4.89073 8.90478 3Z" fill="#DCD3C2"/>
<path d="M107.965 3H107.085C107.088 4.88959 106.288 6.72357 104.819 8.19954C103.349 9.6755 101.297 10.7053 99 11.1191C99.5176 13.2881 100.035 15.5817 100.397 18L102.737 17.5346C103.015 16.2675 103.725 15.0872 104.789 14.1247C105.852 13.1623 107.228 12.4556 108.762 12.0831C108.83 12.0657 108.89 12.0314 108.933 11.9852C108.975 11.9389 108.999 11.8831 109 11.8255V3.84765C109.003 3.73712 108.978 3.62727 108.927 3.52452C108.876 3.42177 108.8 3.32819 108.704 3.24925C108.608 3.17031 108.493 3.10761 108.366 3.06481C108.239 3.02201 108.102 2.99998 107.965 3Z" fill="#DCD3C2"/>
</g>
<path d="M65.95 37.1886C64.155 37.1886 62.7 39.1544 62.7 41.5708C62.7 43.9921 64.155 45.9578 65.95 45.9578C67.745 45.9578 69.2 43.9921 69.2 41.5708C69.1975 39.1544 67.745 37.1886 65.95 37.1886ZM77.265 25.7813C77.6375 24.8922 77.6525 19.8401 75.6775 15C75.6775 15 71.15 15.4847 64.3 20.0667C62.8625 19.6769 60.43 19.4869 58.0025 19.4869C55.57 19.4869 53.14 19.6769 51.7025 20.0667C44.85 15.4847 40.3225 15 40.3225 15C38.35 19.8401 38.37 24.8922 38.7375 25.7813C36.4175 28.2367 35 31.1865 35 35.2106C35 52.715 49.9075 52.9951 53.6675 52.9951L58.0025 53L62.3325 52.9951C66.0975 52.9951 81 52.715 81 35.2106C81 31.1865 79.585 28.2367 77.265 25.7813ZM58.07 50.8442H57.93C48.5025 50.8442 41.1575 49.7505 41.1575 40.8205C41.1575 38.6794 41.9325 36.6965 43.775 35.0499C46.8425 32.3046 52.0375 33.7564 57.93 33.7564H58.07C63.9625 33.7564 69.16 32.3046 72.23 35.0499C74.0675 36.6965 74.8425 38.6794 74.8425 40.8205C74.8425 49.7505 67.5 50.8442 58.07 50.8442ZM50.0525 37.1886C48.2575 37.1886 46.8025 39.1544 46.8025 41.5708C46.8025 43.9921 48.2575 45.9578 50.0525 45.9578C51.85 45.9578 53.305 43.9921 53.305 41.5708C53.305 39.1544 51.85 37.1886 50.0525 37.1886Z" fill="#120D09"/>
<defs>
<filter id="filter0_d_6_5" x="0" y="0" width="116" height="75.6" filterUnits="userSpaceOnUse" color-interpolation-filters="sRGB">
<feFlood flood-opacity="0" result="BackgroundImageFix"/>
<feColorMatrix in="SourceAlpha" type="matrix" values="0 0 0 0 0 0 0 0 0 0 0 0 0 0 0 0 0 0 127 0" result="hardAlpha"/>
<feOffset dy="4"/>
<feGaussianBlur stdDeviation="2"/>
<feComposite in2="hardAlpha" operator="out"/>
<feColorMatrix type="matrix" values="0 0 0 0 0 0 0 0 0 0 0 0 0 0 0 0 0 0 0.25 0"/>
<feBlend mode="normal" in2="BackgroundImageFix" result="effect1_dropShadow_6_5"/>
<feBlend mode="normal" in="SourceGraphic" in2="effect1_dropShadow_6_5" result="shape"/>
</filter>
<linearGradient id="paint0_linear_6_5" x1="58" y1="63.1203" x2="58" y2="7.56052" gradientUnits="userSpaceOnUse">
<stop stop-color="#6E0000"/>
<stop offset="1" stop-color="#760000"/>
</linearGradient>
</defs>
</svg>
